<?xml version="1.0" encoding="UTF-8" standalone="no"?>
<svg
   xmlns:dc="http://purl.org/dc/elements/1.1/"
   xmlns:cc="http://creativecommons.org/ns#"
   xmlns:rdf="http://www.w3.org/1999/02/22-rdf-syntax-ns#"
   xmlns:svg="http://www.w3.org/2000/svg"
   xmlns="http://www.w3.org/2000/svg"
   version="1.1"
   id="Layer_1"
   x="0px"
   y="0px"
   viewBox="0 0 3435.0001 755.00003"
   xml:space="preserve"
   width="3435"
   height="755"><metadata
   id="metadata103"><rdf:RDF><cc:Work
       rdf:about=""><dc:format>image/svg+xml</dc:format><dc:type
         rdf:resource="http://purl.org/dc/dcmitype/StillImage" /><dc:title></dc:title></cc:Work></rdf:RDF></metadata><defs
   id="defs101" />
<style
   type="text/css"
   id="style2">
	.st0{stroke:#FFFFFF;stroke-miterlimit:10;}
	.st1{fill:#18F082;}
	.st2{opacity:0.5;}
	.st3{fill:#383838;}
	.st4{fill:#FDFDFD;}
	.st5{fill:#FFFFFF;}
	.st6{fill:#C3F018;}
	.st7{fill:#F00197;}
	.st8{fill:#F71C22;}
	.st9{fill:#FF0090;}
	.st10{fill:#F9F9F9;}
	.st11{fill:#EA3D00;}
	.st12{stroke:#FFFFFF;stroke-width:0.841;stroke-miterlimit:10;}
</style>
<g
   id="g8"
   transform="translate(-112.5,-291.71364)">
	<g
   id="g6">
		<path
   class="st9"
   d="M 414.6,1021.3 C 374,884.3 334.5,751.1 295,617.8 c -2.6,-1.2 -5.2,-2.3 -7.8,-3.5 -14.3,25 -28.6,50 -43,75.2 -33.6,-19.3 -66.1,-38.1 -100.9,-58.1 30.1,-64 57.6,-133.5 95,-197.2 15.5,-26.5 52.1,-40.6 80.3,-61.1 31.7,48.5 70.1,71.6 123,54.8 50,-15.9 69.1,-54.5 68.8,-106.7 47,-5.6 91.1,-12.4 134.5,19.1 50.1,36.4 104.7,66.4 156.3,98.5 -18.6,35.4 -35.8,68.1 -53.9,102.6 -25.9,-13.2 -51.4,-26.1 -76.9,-39.1 -2.6,1.5 -5.2,3.1 -7.8,4.6 34.8,135.5 84.4,266.9 123.4,403.5 -118.1,60.2 -241.2,96.2 -371.4,110.9 z"
   id="path4" />
	</g>
</g>
<path
   class="st3"
   d="m 5,348.48636 c 27.2,-58.2 59.5,-117.5 82.9,-180.2 23.4,-62.8 77.7,-81.599997 130,-110.699997 22,45.799997 52.5,76.099997 104.8,59.899997 51,-15.7 58.8,-57.399997 52.9,-106.399997 58.3,-4.2000003 113,-18.5000001 166.2,20 55,39.8 115,72.899997 170.7,107.699997 -25.1,45.8 -48.6,88.7 -73.9,134.8 -16.1,-7.7 -36.1,-17.3 -61.5,-29.5 4.6,15.5 7.4,25.6 10.6,35.7 33.8,107.3 66.9,214.8 101.8,321.7 7.3,22.2 1.6,32 -18.3,41.5 -113.4,54.1 -232.1,89.3 -356.6,105.7 -21.7,2.9 -32.1,-1.8 -38.1,-24.6 -29.3,-109.6 -60.4,-218.8 -90.9,-328.1 -2.6,-9.2 -5.4,-18.4 -10,-34 -14,24.2 -24.8,42.8 -34.1,58.7 -45.6,-24 -89.4,-47.3 -136.5,-72.2 z m 297.1,381.1 c 130.2,-14.8 253.3,-50.7 371.3,-110.9 -39,-136.5 -88.5,-267.9 -123.4,-403.5 2.6,-1.5 5.2,-3.1 7.8,-4.6 25.5,12.9 51,25.9 76.9,39.1 18.1,-34.5 35.3,-67.2 53.9,-102.6 -51.5,-32.1 -106.2,-62.099997 -156.3,-98.499997 -43.3,-31.5 -87.5,-24.8 -134.5,-19.1 0.3,52.2 -18.8,90.799997 -68.8,106.699997 -52.9,16.8 -91.3,-6.3 -123,-54.799997 -28.1,20.499997 -64.7,34.599997 -80.3,61.099997 -37.4,63.7 -64.9,133.1 -95,197.2 34.8,20.1 67.4,38.8 100.9,58.1 14.4,-25.2 28.7,-50.2 43,-75.2 2.6,1.2 5.2,2.3 7.8,3.5 39.6,133.3 79.1,266.6 119.7,403.5 z"
   id="path10" />
<path
   class="st5"
   d="m 285.5,351.38636 -50.5,15.3 -4.5,-54.8 177.6,-54 4.5,54.8 -49.9,15.2 14.2,160.8 -77.2,23.5 z"
   id="path12" />
<polygon
   class="st5"
   points="534.8,610.4 484.4,624.8 499.4,778.6 648.4,733.8 651.6,676.7 555.9,705.8 553.8,679.8 636.5,654.7 632.1,599.9 549.3,625.1 547,597 633.1,571.7 628.1,516.9 529.9,547.1 "
   id="polygon14"
   transform="translate(-112.5,-291.71364)" />
<g
   id="g96"
   transform="translate(-112.5,-291.71364)">
	<g
   id="g56">
		<g
   id="g54">
			<path
   class="st9"
   d="m 881.8,361.4 h -48.9 l 10.8,-49.7 h 171.9 l -10.8,49.7 h -48.3 l -30.7,146.3 h -74.7 z"
   id="path16" />
			<path
   class="st9"
   d="m 1080.7,437.3 -14.5,70.5 h -73.6 l 41.5,-196 h 98.3 c 49.7,0 69.3,23.9 69.3,50.3 0,27 -15.9,45.2 -41.8,52.8 16.8,6.3 25,23.3 18.8,52.6 -3.4,15.6 -6.5,33.5 -6.5,40.3 h -70.7 c -1.1,-8.2 0.6,-21.9 5.4,-44.9 3.4,-15.9 3.4,-25.6 -15.6,-25.6 z m 9.9,-44.3 h 12.8 c 14.8,0 23.9,-7.4 23.9,-21.6 0,-8.2 -4,-15.3 -15.9,-15.3 h -13.1 z"
   id="path18" />
			<path
   class="st9"
   d="m 1269,472 -13.4,35.8 H 1179 l 93.8,-196 h 100.6 l 12.8,196 h -74.7 V 472 Z m 43.2,-49.8 c 0,-12.8 -0.3,-42.6 -0.3,-60.5 h -1.7 c -8,24.4 -14.8,41.8 -21.9,60.5 z"
   id="path20" />
			<path
   class="st9"
   d="m 1439.5,311.7 h 83.2 c 60.2,0 89.2,35.2 89.2,82.4 0,44.6 -21,113.6 -119.6,113.6 H 1398 Z m 43.2,148.3 h 15.3 c 27,0 36.4,-49.7 36.4,-72.5 0,-18.8 -4.8,-28.1 -20.7,-28.1 h -9.4 z"
   id="path22" />
			<path
   class="st9"
   d="m 1778.2,434.4 h -80.1 L 1693,458 h 92.6 l -18.2,49.7 h -155.7 l 41.5,-196 h 154.3 l -10.2,49.7 H 1714 l -5.1,23.3 h 80.1 z"
   id="path24" />
			<path
   class="st3"
   d="m 980.9,674.4 h -80.1 l -5.1,23.6 h 92.6 l -18.2,49.7 H 814.4 l 41.5,-196 h 154.3 l -10.2,49.7 h -83.2 l -5.1,23.3 h 80.1 z"
   id="path26" />
			<path
   class="st3"
   d="m 1163.1,697.2 c 5.7,-26.7 15.6,-69.6 21.6,-94.3 h -1.4 c -14.8,42.3 -32.7,95.5 -50,144.9 h -56.5 c 5.4,-57.1 8.8,-94.3 13.6,-143.8 h -2 c -3.7,23 -9.9,58.8 -17,92.3 l -10.8,51.4 h -65.3 l 41.5,-196 h 104.3 c -2.8,22.4 -8.8,73.6 -12.8,100.3 h 2.3 c 13.4,-39.2 21.6,-67.9 33.2,-100.3 h 101.7 l -41.5,196 h -71.3 z"
   id="path28" />
			<path
   class="st3"
   d="m 1296,551.7 h 96.9 c 51.1,0 67.3,22.7 67.3,47.4 0,25.9 -16.5,40.1 -35.2,46.6 16.8,6.5 27,21.6 27,40.9 0,33.5 -26.7,61.1 -85.8,61.1 h -111.7 z m 39,152.6 h 16.2 c 17.3,0 23,-8 23,-18.2 0,-9.4 -6,-15.1 -18.2,-15.1 h -14.2 z m 32.1,-76.7 c 13.9,0 21,-6.8 21,-18.2 0,-7.4 -4.5,-13.9 -15.3,-13.9 h -14.5 l -6.8,32.1 z"
   id="path30" />
			<path
   class="st3"
   d="m 1546.9,677.3 -14.5,70.5 h -73.6 l 41.5,-196 h 98.3 c 49.7,0 69.3,23.9 69.3,50.3 0,27 -15.9,45.2 -41.8,52.8 16.8,6.3 25,23.3 18.8,52.6 -3.4,15.6 -6.5,33.5 -6.5,40.3 h -70.7 c -1.1,-8.2 0.6,-21.9 5.4,-44.9 3.4,-15.9 3.4,-25.6 -15.6,-25.6 z m 9.9,-44.3 h 12.8 c 14.8,0 23.9,-7.4 23.9,-21.6 0,-8.2 -4,-15.3 -15.9,-15.3 h -13.1 z"
   id="path32" />
			<path
   class="st3"
   d="m 1880.7,631.8 c 0,54.6 -29.3,121 -118.5,121 -65.3,0 -88.9,-40.1 -88.9,-82.4 0,-59.7 36.1,-123.9 116.8,-123.9 62.5,0.1 90.6,38.5 90.6,85.3 z m -130.6,44.6 c 0,13.6 3.1,27.6 18.8,27.6 28.7,0 36.9,-61.7 36.9,-80.7 0,-12.2 -2.3,-27.8 -18.5,-27.8 -27.9,0 -37.2,59.6 -37.2,80.9 z"
   id="path34" />
			<path
   class="st3"
   d="m 1997.5,551.7 -41.5,196 h -75 l 41.5,-196 z"
   id="path36" />
			<path
   class="st3"
   d="m 2028.5,551.7 h 83.2 c 60.2,0 89.2,35.2 89.2,82.4 0,44.6 -21,113.6 -119.6,113.6 H 1987 Z m 43.2,148.3 h 15.3 c 27,0 36.4,-49.7 36.4,-72.5 0,-18.8 -4.8,-28.1 -20.7,-28.1 h -9.4 z"
   id="path38" />
			<path
   class="st3"
   d="M 2367.2,674.4 H 2287 l -5.1,23.6 h 92.6 l -18.2,49.7 h -155.7 l 41.5,-196 h 154.3 l -10.2,49.7 H 2303 l -5.1,23.3 h 80.1 z"
   id="path40" />
			<path
   class="st3"
   d="m 2469.4,677.3 -14.5,70.5 h -73.6 l 41.5,-196 h 98.3 c 49.7,0 69.3,23.9 69.3,50.3 0,27 -15.9,45.2 -41.8,52.8 16.8,6.3 25,23.3 18.8,52.6 -3.4,15.6 -6.5,33.5 -6.5,40.3 h -70.7 c -1.1,-8.2 0.6,-21.9 5.4,-44.9 3.4,-15.9 3.4,-25.6 -15.6,-25.6 z m 10,-44.3 h 12.8 c 14.8,0 23.9,-7.4 23.9,-21.6 0,-8.2 -4,-15.3 -15.9,-15.3 h -13.1 z"
   id="path42" />
			<path
   class="st3"
   d="m 2623.7,747.8 14.8,-68.2 c 0.6,-3.1 0.9,-4.8 -0.6,-9.1 L 2599,551.7 h 78.1 c 3.7,22.7 7.7,54.3 10.2,77 12.8,-25 28.4,-55.7 40.1,-77 h 81 l -91.8,124.4 c -1.4,2 -3.1,5.7 -3.7,8.8 l -13.4,62.8 h -75.8 z"
   id="path44" />
			<path
   class="st9"
   d="m 2762.9,747.5 13.4,-64.2 h 61.1 l -13.4,64.2 z"
   id="path46" />
			<path
   class="st9"
   d="m 3049.3,676.4 c -13.9,57.4 -56.3,76.4 -105.7,76.4 -60.8,0 -85.5,-35.5 -85.5,-82.4 0,-56.3 31.3,-123.9 114.8,-123.9 61.9,0 88.1,33.8 85.2,74.4 h -73.3 c 0.9,-14.5 -1.4,-25.9 -15.3,-25.9 -25.3,0 -34.7,58.8 -34.7,83.5 0,13.9 4,24.7 15.9,24.7 14.2,0 20.2,-11.9 25,-27 h 73.6 z"
   id="path48" />
			<path
   class="st9"
   d="m 3271.2,631.8 c 0,54.6 -29.3,121 -118.5,121 -65.3,0 -88.9,-40.1 -88.9,-82.4 0,-59.7 36.1,-123.9 116.8,-123.9 62.5,0.1 90.6,38.5 90.6,85.3 z m -130.7,44.6 c 0,13.6 3.1,27.6 18.8,27.6 28.7,0 36.9,-61.7 36.9,-80.7 0,-12.2 -2.3,-27.8 -18.5,-27.8 -27.8,0 -37.2,59.6 -37.2,80.9 z"
   id="path50" />
			<path
   class="st9"
   d="m 3439.4,697.2 c 5.7,-26.7 15.6,-69.6 21.6,-94.3 h -1.4 c -14.8,42.3 -32.7,95.5 -50,144.9 h -56.5 c 5.4,-57.1 8.8,-94.3 13.6,-143.8 h -2 c -3.7,23 -9.9,58.8 -17,92.3 l -10.8,51.4 h -65.3 l 41.5,-196 h 104.3 c -2.8,22.4 -8.8,73.6 -12.8,100.3 h 2.3 c 13.4,-39.2 21.6,-67.9 33.2,-100.3 h 101.7 l -41.5,196 H 3429 Z"
   id="path52" />
		</g>
	</g>
	<polygon
   class="st9"
   points="3458.9,895.6 3484.4,776 1990.1,776 1965.7,895.6 "
   id="polygon58" />
	<g
   id="g94">
		<g
   id="g92">
			<path
   class="st5"
   d="m 2039,800.5 h 41.7 l -1.3,5.9 h -34.9 l -5.4,25.5 h 32.7 l -1.3,5.9 h -32.7 l -6.8,32.6 h -6.8 z"
   id="path60" />
			<path
   class="st5"
   d="m 2163,828.3 c 0,20 -11.2,43 -36.5,43 -16.7,0 -26,-11.5 -26,-28.1 0,-20.5 12.1,-43.7 36.3,-43.7 16.7,0 26.2,10.8 26.2,28.8 z m -55.4,14.7 c 0,12.4 6.1,22.5 19.9,22.5 19.1,0 28.6,-19.5 28.6,-37.4 0,-13.6 -6.7,-22.8 -19.7,-22.8 -19.7,0 -28.8,20.8 -28.8,37.7 z"
   id="path62" />
			<path
   class="st5"
   d="m 2203.5,838 -6.7,32.3 h -6.7 l 14.8,-69.8 h 22.4 c 12.9,0 19.2,6.7 19.2,16.5 0,10.6 -6.3,16.7 -15.7,18.7 4.4,1.6 10.1,5.9 7.6,17.8 -1.7,7.8 -3.1,14.1 -2.8,16.9 h -6.3 c -0.3,-3 0.5,-8.4 2.5,-16.5 2.3,-10.8 -1.2,-15.8 -12.8,-15.8 h -15.5 z m 1.3,-5.8 h 14.5 c 12.5,0 20.1,-4.2 20.1,-14.5 0,-7.8 -5,-11.4 -13.3,-11.4 h -15.8 z"
   id="path64" />
			<path
   class="st5"
   d="m 2343.3,806.3 h -22.2 l 1.3,-5.9 h 51.1 l -1.3,5.9 H 2350 l -13.4,63.9 h -6.7 z"
   id="path66" />
			<path
   class="st5"
   d="m 2403.7,800.5 h 6.7 l -6.3,29.4 h 38 l 6.3,-29.4 h 6.7 l -14.8,69.8 h -6.7 l 7.2,-34.5 h -38 l -7.2,34.5 h -6.7 z"
   id="path68" />
			<path
   class="st5"
   d="m 2525.1,836.3 h -33 l -5.9,28.2 h 37.8 l -2.2,5.9 h -43.5 l 14.8,-69.8 h 41.6 l -1.2,5.9 h -34.9 l -5.2,24 h 33 z"
   id="path70" />
			<path
   class="st5"
   d="m 2614.6,800.5 h 21.5 c 13.6,0 20.7,7.8 20.7,18.1 0,14.8 -10.9,22 -26.3,22 h -17.7 l -6.2,29.7 h -6.7 z m -0.6,34.2 h 16.7 c 11.4,0 19,-4.6 19,-15.8 0,-8.9 -6.2,-12.6 -15.5,-12.6 H 2620 Z"
   id="path72" />
			<path
   class="st5"
   d="m 2692.7,838 -6.7,32.3 h -6.7 l 14.8,-69.8 h 22.4 c 12.9,0 19.2,6.7 19.2,16.5 0,10.6 -6.3,16.7 -15.7,18.7 4.4,1.6 10.1,5.9 7.6,17.8 -1.7,7.8 -3.1,14.1 -2.8,16.9 h -6.3 c -0.3,-3 0.5,-8.4 2.5,-16.5 2.3,-10.8 -1.2,-15.8 -12.8,-15.8 h -15.5 z m 1.3,-5.8 h 14.5 c 12.5,0 20.1,-4.2 20.1,-14.5 0,-7.8 -5,-11.4 -13.3,-11.4 h -15.8 z"
   id="path74" />
			<path
   class="st5"
   d="m 2781.6,800.5 -14.8,69.8 h -6.7 l 14.8,-69.8 z"
   id="path76" />
			<path
   class="st5"
   d="m 2804.7,870.3 14.8,-69.8 h 8.8 c 6.4,16 22.4,55.2 24.5,62.1 h 0.1 c 1.2,-8.6 4.1,-20.9 6.5,-32.3 l 6.3,-29.8 h 6.6 l -14.8,69.8 h -8.4 c -6.1,-15.2 -22.3,-55.7 -24.8,-63.3 h -0.1 c -1.4,9.1 -3.8,20.1 -6.5,32.7 l -6.4,30.5 h -6.6 z"
   id="path78" />
			<path
   class="st5"
   d="M 2922.2,806.3 H 2900 l 1.3,-5.9 h 51.1 l -1.3,5.9 h -22.3 l -13.4,63.9 h -6.7 z"
   id="path80" />
			<path
   class="st5"
   d="m 3040.3,806.3 h -22.2 l 1.3,-5.9 h 51.1 l -1.3,5.9 H 3047 l -13.4,63.9 h -6.7 z"
   id="path82" />
			<path
   class="st5"
   d="m 3099.4,838 -6.7,32.3 h -6.7 l 14.8,-69.8 h 22.4 c 12.9,0 19.2,6.7 19.2,16.5 0,10.6 -6.3,16.7 -15.7,18.7 4.4,1.6 10.1,5.9 7.6,17.8 -1.7,7.8 -3.1,14.1 -2.8,16.9 h -6.3 c -0.3,-3 0.5,-8.4 2.5,-16.5 2.3,-10.8 -1.2,-15.8 -12.8,-15.8 h -15.5 z m 1.3,-5.8 h 14.5 c 12.5,0 20.1,-4.2 20.1,-14.5 0,-7.8 -5,-11.4 -13.3,-11.4 h -15.8 z"
   id="path84" />
			<path
   class="st5"
   d="m 3180.3,847.2 -12.7,23.1 h -7.2 l 39.1,-69.8 h 7.8 l 11,69.8 h -6.8 l -3.6,-23.1 z m 27,-5.9 c -2.7,-17.3 -4.5,-29 -5,-34.4 h -0.1 c -3,6.1 -9.7,18.3 -18.6,34.4 z"
   id="path86" />
			<path
   class="st5"
   d="m 3262,800.5 h 19.3 c 17.8,0 28.9,11.3 28.9,29.4 0,23.3 -14.7,40.4 -38.9,40.4 h -24.1 z m -6.8,64 h 15.7 c 20.5,0 32.1,-14.3 32.2,-34.6 0.1,-14.6 -8,-23.6 -22.6,-23.6 h -13 z"
   id="path88" />
			<path
   class="st5"
   d="m 3384.1,836.3 h -33 l -5.9,28.2 h 37.8 l -2.2,5.9 h -43.5 l 14.8,-69.8 h 41.6 l -1.2,5.9 h -34.9 l -5.2,24 h 33 z"
   id="path90" />
		</g>
	</g>
</g>
</svg>
